<?xml version="1.0" encoding="UTF-8" standalone="no"?>
<!-- Created with Inkscape (http://www.inkscape.org/) -->

<svg
        version="1.1"
        id="svg2"
        width="370.39999"
        height="417.42667"
        viewBox="0 0 370.39999 417.42667"
        xmlns="http://www.w3.org/2000/svg">
  <g
          id="g8"
          transform="matrix(1.3333333,0,0,-1.3333333,0,417.42667)">
    <g
            id="g10"
            transform="scale(0.1)">
      <path
         d="m 2333.16,303.25 c -17.25,0 -34.51,0 -49.84,5.18 v 236.351 c 15.33,-6.883 32.59,-8.609 49.84,-8.609 99.69,0 184.07,77.648 184.07,167.359 0,148.391 -193.66,239.821 -193.66,429.629 0,231.24 168.72,383.2 423.72,383.2 v -233.09 c -95.88,0 -164.91,-62.11 -164.91,-150.11 0,-115.59 195.58,-207.031 195.58,-429.629 0,-239.82 -178.31,-400.281 -444.8,-400.281"
         style="fill:#ffffff;fill-opacity:1;fill-rule:nonzero;stroke:none"
         id="path12" />
      <path
         d="M 643.563,2.75 H 625.586 V 148.988 L 560.242,53.9297 h -3.625 l -65.34,95.0583 V 2.75 H 473.793 V 182.5 h 16.062 l 0.747,-1.09 L 558.684,81.1016 627.512,182.5 h 16.051 V 2.75"
         style="fill:#ffffff;fill-opacity:1;fill-rule:nonzero;stroke:none"
         id="path14" />
      <path
         d="m 786.863,0 c -10.734,0 -20.726,1.69141 -29.699,5.01953 -9.051,3.3711 -16.992,8.42967 -23.617,15.06247 -6.637,6.6289 -11.828,14.8672 -15.426,24.4766 -3.59,9.5508 -5.406,20.7734 -5.406,33.332 V 182.5 h 17.984 V 79.1406 c 0,-20.0586 5.024,-35.6523 14.938,-46.3515 9.859,-10.6602 23.898,-16.0586 41.726,-16.0586 8.465,0 16.235,1.289 23.102,3.8398 6.754,2.5195 12.609,6.3399 17.41,11.3711 4.797,5.0391 8.563,11.4492 11.18,19.0586 2.64,7.6914 3.976,16.7383 3.976,26.8906 V 182.5 h 17.985 V 79.3984 c 0,-12.7265 -1.817,-24.1367 -5.395,-33.9492 C 852.016,35.6016 846.875,27.1914 840.336,20.4688 833.773,13.75 825.867,8.60156 816.836,5.16016 807.867,1.73828 797.781,0 786.863,0"
         style="fill:#ffffff;fill-opacity:1;fill-rule:nonzero;stroke:none"
         id="path16" />
      <path
         d="M 1050.75,2.75 H 930.16 V 182.5 h 17.985 V 19.4883 H 1050.75 V 2.75"
         style="fill:#ffffff;fill-opacity:1;fill-rule:nonzero;stroke:none"
         id="path18" />
      <path
         d="m 1176.07,2.75 h -17.98 v 163.02 h -60.91 v 16.73 h 139.81 v -16.73 h -60.92 V 2.75"
         style="fill:#ffffff;fill-opacity:1;fill-rule:nonzero;stroke:none"
         id="path20" />
      <path
         d="m 1316.12,2.75 h -17.98 V 182.5 h 17.98 V 2.75"
         style="fill:#ffffff;fill-opacity:1;fill-rule:nonzero;stroke:none"
         id="path22" />
      <path
         d="m 1559.53,2.75 h -17.98 v 146.238 l -65.34,-95.0583 h -3.63 l -65.33,95.0583 V 2.75 h -17.49 V 182.5 h 16.06 l 0.75,-1.09 68.08,-100.3084 68.83,101.3984 h 16.05 V 2.75"
         style="fill:#ffffff;fill-opacity:1;fill-rule:nonzero;stroke:none"
         id="path24" />
      <path
         d="M 1762,2.75 H 1631.43 V 182.5 h 129.33 v -16.73 h -111.35 v -64.161 h 100.11 V 84.8906 H 1649.41 V 19.4883 H 1762 V 2.75"
         style="fill:#ffffff;fill-opacity:1;fill-rule:nonzero;stroke:none"
         id="path26" />
      <path
         d="m 1841.64,19.4883 h 42.69 c 11.79,0 22.56,1.9101 32.02,5.7031 9.47,3.7774 17.59,8.9883 24.14,15.4883 6.55,6.4805 11.7,14.2109 15.3,22.9687 3.59,8.7422 5.42,18.3204 5.42,28.4727 0,10.4999 -1.83,20.0269 -5.42,28.8589 -3.61,8.84 -8.76,16.649 -15.32,23.231 -6.54,6.57 -14.66,11.867 -24.14,15.73 -9.48,3.868 -20.25,5.829 -32,5.829 h -42.69 z M 1884.33,2.75 h -60.67 V 182.5 h 60.67 c 13.88,0 26.83,-2.281 38.47,-6.77 11.67,-4.531 21.86,-10.871 30.28,-18.871 8.45,-8.039 15.07,-17.609 19.68,-28.429 4.6,-10.84 6.94,-22.711 6.94,-35.3011 0,-13.0976 -2.34,-25.0195 -6.94,-35.9297 -4.61,-10.9179 -11.23,-20.5273 -19.68,-28.5508 C 1944.65,20.6406 1934.47,14.25 1922.82,9.66016 1911.18,5.07031 1898.22,2.75 1884.33,2.75"
         style="fill:#ffffff;fill-opacity:1;fill-rule:nonzero;stroke:none"
         id="path28" />
      <path
         d="m 2063.58,2.75 h -17.97 V 182.5 h 17.97 V 2.75"
         style="fill:#ffffff;fill-opacity:1;fill-rule:nonzero;stroke:none"
         id="path30" />
      <path
         d="m 2169.82,68.4102 h 84.36 l -42.06,92.5778 z M 2303.91,2.75 h -19.75 l -22.22,48.9297 h -99.88 L 2139.83,2.75 h -18.99 l 83.69,181 h 15.68 l 0.67,-1.449 83.03,-179.551"
         style="fill:#ffffff;fill-opacity:1;fill-rule:nonzero;stroke:none"
         id="path32" />
      <path
         d="m 879.332,2393.15 v 0"
         style="fill:#ffffff;fill-opacity:1;fill-rule:nonzero;stroke:none"
         id="path34" />
      <path
         d="m 879.332,2393.15 v 0"
         style="fill:none;stroke:#ffffff;stroke-width:120;stroke-linecap:butt;stroke-linejoin:miter;stroke-miterlimit:10;stroke-dasharray:none;stroke-opacity:1"
         id="path36" />
      <path
         d="m 1783.36,858.809 h -67.92 v 407.231 h 67.92 c 119.34,0 216.63,-91.46 216.63,-203.61 0,-112.16 -97.29,-203.621 -216.63,-203.621 z m 0,642.011 H 1659.33 L 1465.8,1307.28 V 318.762 h 249.64 V 624.16 h 67.92 c 256.99,0 466.26,196.692 466.26,438.27 0,241.56 -209.27,438.39 -466.26,438.39"
         style="fill:#ffffff;fill-opacity:1;fill-rule:nonzero;stroke:none"
         id="path38" />
      <path
         d="M 1133.16,1486.3 919.387,927.828 698.34,1500.82 477.246,927.828 256.156,1500.82 H 0 L 477.246,282.551 696.566,850.18 919.387,282.551 1317.32,1302.12 1133.16,1486.3"
         style="fill:#ffffff;fill-opacity:1;fill-rule:nonzero;stroke:none"
         id="path40" />
      <path
         d="m 1388.99,2382.86 h 0.01 c 42.81,0 83.08,-16.7 113.37,-46.98 62.51,-62.53 62.51,-164.24 0,-226.77 -30.29,-30.29 -70.57,-46.97 -113.39,-46.97 -42.84,0 -83.1,16.68 -113.39,46.96 -30.28,30.3 -46.96,70.56 -46.96,113.39 0,42.79 16.64,83.01 46.87,113.3 l 0.19,0.19 c 30.28,30.21 70.5,46.86 113.3,46.88 z m 226.76,519.95 -0.62,-0.63 -0.01,0.01 -453.55,-453.55 0.03,-0.03 c -124.62,-125.29 -124.43,-327.86 0.61,-452.89 62.61,-62.62 144.69,-93.93 226.77,-93.93 82.06,0 164.14,31.31 226.77,93.94 125.25,125.23 125.25,328.29 0,453.53 -41.32,41.33 -91.13,68.93 -143.79,82.99 l 143.8,143.79 453.54,-453.54 -680.32,-680.31 -680.312,680.31 170.664,170.65 -113.379,113.39 -284.062,-284.04 907.089,-907.19 907.08,907.18 -680.31,680.32"
         style="fill:#ffffff;fill-opacity:1;fill-rule:nonzero;stroke:none"
         id="path42" />
      <path
         d="M 1004.87,2518.7 891.484,2405.32 778.102,2518.7 891.484,2632.09 1004.87,2518.7"
         style="fill:#d3d2d2;fill-opacity:1;fill-rule:nonzero;stroke:none"
         id="path44" />
      <path
         d="m 1129.54,2643.37 -113.39,-113.39 -113.396,113.39 113.396,113.39 113.39,-113.39"
         style="fill:#bdbcbc;fill-opacity:1;fill-rule:nonzero;stroke:none"
         id="path46" />
      <path
         d="m 1254.2,2768.04 -113.38,-113.4 -113.38,113.39 113.39,113.4 113.37,-113.39"
         style="fill:#a7a5a6;fill-opacity:1;fill-rule:nonzero;stroke:none"
         id="path48" />
      <path
         d="m 1378.87,2892.69 -113.39,-113.38 -113.39,113.38 113.39,113.39 113.39,-113.39"
         style="fill:#7b7979;fill-opacity:1;fill-rule:nonzero;stroke:none"
         id="path50" />
      <path
         d="m 1503.54,3017.36 -113.37,-113.38 -113.4,113.39 113.4,113.38 113.37,-113.39"
         style="fill:#4f4c4c;fill-opacity:1;fill-rule:nonzero;stroke:none"
         id="path52" />
    </g>
  </g>
</svg>
